<?xml version="1.0" standalone="no"?>
<!DOCTYPE svg PUBLIC "-//W3C//DTD SVG 20010904//EN"
 "http://www.w3.org/TR/2001/REC-SVG-20010904/DTD/svg10.dtd">
<svg version="1.0" xmlns="http://www.w3.org/2000/svg"
 width="264.000000pt" height="264.000000pt" viewBox="0 0 264.000000 264.000000"
 preserveAspectRatio="xMidYMid meet">
<metadata>
Created by potrace 1.11, written by Peter Selinger 2001-2013
</metadata>
<g transform="translate(0.000000,264.000000) scale(0.100000,-0.100000)"
fill="#000000" stroke="none">
<path d="M1547 2374 c-2 -2 -17 -5 -33 -7 -16 -2 -52 -15 -80 -30 -28 -14 -54
-23 -58 -20 -3 4 -6 1 -6 -5 0 -10 -129 -78 -139 -73 -2 2 -7 -1 -10 -6 -3 -5
-33 -22 -66 -38 -33 -16 -68 -36 -79 -45 -10 -8 -19 -13 -20 -11 -2 7 -90 -41
-98 -53 -4 -6 -8 -8 -8 -3 0 9 -82 -32 -91 -45 -3 -5 -10 -9 -15 -9 -17 1 -44
-10 -44 -20 0 -5 -4 -8 -8 -7 -9 4 -106 -44 -110 -54 -2 -5 -12 -8 -23 -8 -10
0 -19 -5 -19 -12 0 -6 -3 -8 -7 -5 -3 4 -15 -1 -26 -10 -15 -13 -18 -14 -12
-3 4 8 -2 5 -14 -7 -20 -21 -28 -25 -47 -22 -4 0 -10 -3 -13 -8 -3 -4 -42 -26
-86 -48 -87 -44 -141 -93 -177 -164 -19 -38 -23 -60 -23 -140 l0 -96 129 -250
c70 -137 133 -256 138 -262 6 -7 7 -13 3 -13 -4 0 -3 -6 3 -13 5 -6 72 -133
147 -282 76 -148 148 -286 160 -305 25 -40 106 -110 128 -110 7 0 17 -3 21 -7
9 -9 32 -14 81 -18 22 -2 42 -4 45 -5 5 -2 9 -2 45 6 11 3 31 7 45 10 14 3 27
9 28 15 2 5 12 9 22 9 10 0 25 6 32 13 7 7 32 22 56 32 23 10 42 22 42 27 0 4
3 7 8 6 10 -3 56 13 62 21 3 4 28 18 55 30 28 13 52 26 55 30 7 8 238 121 246
120 4 0 10 3 13 8 3 5 60 35 126 68 66 33 122 62 125 65 9 9 195 98 204 98 5
0 12 4 15 9 3 4 24 21 46 38 22 16 43 35 48 41 4 7 14 20 23 29 8 8 13 15 9
15 -3 0 0 10 7 23 26 47 36 89 33 155 -2 75 13 42 -239 537 -65 126 -122 235
-128 242 -6 7 -8 13 -4 13 3 0 -3 15 -13 33 -10 17 -59 111 -107 207 -84 164
-154 267 -175 254 -5 -3 -9 0 -9 5 0 10 -54 38 -90 48 -22 6 -118 11 -123 7z"/>
</g>
</svg>
